<svg xmlns="http://www.w3.org/2000/svg" viewBox="0 0 512 512" fill="none">
  <path d="M256 0C114.6 0 0 114.6 0 256s114.6 256 256 256s256-114.6 256-256S397.4 0 256 0zM256 464c-114.7 0-208-93.31-208-208S141.3 48 256 48s208 93.31 208 208S370.7 464 256 464z" fill="#9333EA"/>
  <path d="M336.6 178.6l-8.2-32.4c-4.3-17-23.1-26.9-42-22.1l-30.5 7.7V99.7c0-8.8-8.9-16-20-16s-20 7.2-20 16v39.1l-30.4 7.7c-18.9 4.8-29.5 22.5-25.2 39.5l8.2 32.4c-17.6 9.5-27.6 25.7-21.8 40.9l8.2 32.4c4.3 17 23.1 26.9 42 22.1l30.5-7.7v39.1c0 8.8 8.9 16 20 16s20-7.2 20-16v-39.1l30.4-7.7c18.9-4.8 29.5-22.5 25.2-39.5l-8.2-32.4C332.4 210 342.4 193.8 336.6 178.6zM296.4 225.5l-80.2 20.3c-8.6 2.2-17.3-2.3-19.5-10.1l-8.2-32.4c-2.2-7.8 3-15.6 11.6-17.8l80.2-20.3c8.6-2.2 17.3 2.3 19.5 10.1l8.2 32.4C310.2 215.5 305 223.3 296.4 225.5z" fill="#9333EA"/>
  <path d="M256 0C114.6 0 0 114.6 0 256s114.6 256 256 256s256-114.6 256-256S397.4 0 256 0zM256 464c-114.7 0-208-93.31-208-208S141.3 48 256 48s208 93.31 208 208S370.7 464 256 464z" fill="#9333EA" fill-opacity="0.7"/>
  <path d="M336.6 178.6l-8.2-32.4c-4.3-17-23.1-26.9-42-22.1l-30.5 7.7V99.7c0-8.8-8.9-16-20-16s-20 7.2-20 16v39.1l-30.4 7.7c-18.9 4.8-29.5 22.5-25.2 39.5l8.2 32.4c-17.6 9.5-27.6 25.7-21.8 40.9l8.2 32.4c4.3 17 23.1 26.9 42 22.1l30.5-7.7v39.1c0 8.8 8.9 16 20 16s20-7.2 20-16v-39.1l30.4-7.7c18.9-4.8 29.5-22.5 25.2-39.5l-8.2-32.4C332.4 210 342.4 193.8 336.6 178.6zM296.4 225.5l-80.2 20.3c-8.6 2.2-17.3-2.3-19.5-10.1l-8.2-32.4c-2.2-7.8 3-15.6 11.6-17.8l80.2-20.3c8.6-2.2 17.3 2.3 19.5 10.1l8.2 32.4C310.2 215.5 305 223.3 296.4 225.5z" fill="#9333EA" fill-opacity="0.7"/>
  <path d="M256 0C114.6 0 0 114.6 0 256s114.6 256 256 256s256-114.6 256-256S397.4 0 256 0zM256 464c-114.7 0-208-93.31-208-208S141.3 48 256 48s208 93.31 208 208S370.7 464 256 464z" fill="#9333EA" fill-opacity="0.5"/>
  <path d="M336.6 178.6l-8.2-32.4c-4.3-17-23.1-26.9-42-22.1l-30.5 7.7V99.7c0-8.8-8.9-16-20-16s-20 7.2-20 16v39.1l-30.4 7.7c-18.9 4.8-29.5 22.5-25.2 39.5l8.2 32.4c-17.6 9.5-27.6 25.7-21.8 40.9l8.2 32.4c4.3 17 23.1 26.9 42 22.1l30.5-7.7v39.1c0 8.8 8.9 16 20 16s20-7.2 20-16v-39.1l30.4-7.7c18.9-4.8 29.5-22.5 25.2-39.5l-8.2-32.4C332.4 210 342.4 193.8 336.6 178.6zM296.4 225.5l-80.2 20.3c-8.6 2.2-17.3-2.3-19.5-10.1l-8.2-32.4c-2.2-7.8 3-15.6 11.6-17.8l80.2-20.3c8.6-2.2 17.3 2.3 19.5 10.1l8.2 32.4C310.2 215.5 305 223.3 296.4 225.5z" fill="#9333EA" fill-opacity="0.5"/>
</svg>

